<?xml version="1.0" encoding="utf-8"?>
<!-- Generator: Adobe Illustrator 28.0.0, SVG Export Plug-In . SVG Version: 6.00 Build 0)  -->
<svg version="1.1" id="Layer_1" xmlns="http://www.w3.org/2000/svg" xmlns:xlink="http://www.w3.org/1999/xlink" x="0px" y="0px"
	 viewBox="0 0 819 386" style="enable-background:new 0 0 819 386;" xml:space="preserve">
<style type="text/css">
	.st0{fill-rule:evenodd;clip-rule:evenodd;fill:url(#SVGID_1_);}
</style>
<radialGradient id="SVGID_1_" cx="475.7301" cy="384.8247" r="475.364" gradientUnits="userSpaceOnUse">
	<stop  offset="0" style="stop-color:#EFDC01"/>
	<stop  offset="1" style="stop-color:#B68503"/>
</radialGradient>
<path class="st0" d="M667,378h35.7v-67.4h75.4V378h35.6V215.9h-35.6v65.1h-75.4v-65.1H667V378z M707.6,275.9v-65.1H662V383h45.7
	v-67.4h65.4V383h45.6V210.9h-45.6v65.1H707.6z M543.8,370.2c12.4,6.9,27.4,10.4,44.8,10.4c10.7,0,21-1.7,30.8-5.1
	c9.8-3.5,17.9-8.1,24.1-13.8l-11-28.3c-1.4,1.1-2.8,2.1-4.2,3.1c-5.5,3.8-11.1,6.8-16.8,8.9c-6.9,2.5-14.2,3.7-21.8,3.7
	c-15.5,0-27.2-4.5-35.2-13.6c-7.8-9-11.7-21.9-11.7-38.6s3.9-29.5,11.7-38.4c8-9,19.7-13.6,35.2-13.6c7.7,0,14.9,1.3,21.8,3.9
	c5.6,2,11.2,4.8,16.8,8.7c1.4,1,2.8,2,4.2,3.1l11-28.3c-6.3-5.8-14.3-10.4-24.1-13.8c-9.8-3.4-20.1-5.1-30.8-5.1
	c-17.5,0-32.4,3.4-44.8,10.3c-12.4,6.9-22,16.6-28.8,29.2c-6.6,12.4-9.9,27.1-9.9,43.9c0,17,3.3,31.8,9.9,44.4
	C521.8,353.6,531.4,363.3,543.8,370.2z M558.4,332.2c6.8,7.7,16.9,11.9,31.4,11.9c7.1,0,13.8-1.1,20.1-3.4c6.5-2.4,13-6.1,19.6-11.2
	l5.3-4.1l14.7,37.8l-2.6,2.3c-6.9,6.2-15.5,11.1-25.8,14.8l0,0l0,0c-10.4,3.6-21.2,5.3-32.4,5.3c-18.1,0-34-3.6-47.3-11
	c-13.2-7.4-23.5-17.7-30.7-31l0,0l0,0c-7-13.4-10.5-29-10.5-46.7c0-17.5,3.4-33,10.5-46.3l0,0l0,0c7.2-13.4,17.5-23.8,30.7-31.2
	c13.3-7.4,29.1-11,47.3-11c11.3,0,22.1,1.8,32.4,5.3c10.3,3.6,19,8.5,25.9,14.9l2.5,2.3l-14.7,37.7l-5.3-4.1
	c-6.5-5.1-13-8.7-19.5-11l-0.1,0l-0.1,0c-6.3-2.4-13-3.6-20.1-3.6c-14.5,0-24.7,4.2-31.4,11.9c-6.7,7.7-10.5,19.1-10.5,35.1
	C547.9,312.8,551.6,324.3,558.4,332.2z M355.8,362.8c12.1,11.8,29.7,17.7,52.7,17.7s40.4-5.9,52.2-17.7
	c11.8-11.8,17.7-29.4,17.7-52.7v-94.3h-35.2v94.5c0,26.5-11.6,39.8-34.7,39.8c-11.3,0-20-3.3-26-9.9c-6-6.7-9-16.7-9-29.9v-94.5
	h-35.6v94.3C337.9,333.5,343.9,351,355.8,362.8z M386.2,336.9c-4.9-5.5-7.7-14.1-7.7-26.6v-99.5h-45.6v99.3
	c0,24.1,6.2,43.2,19.4,56.2l0,0l0,0c13.3,13,32.3,19.1,56.2,19.1c23.8,0,42.7-6.1,55.7-19.2c13.1-13.1,19.2-32.1,19.2-56.2v-99.3
	h-45.2v99.5c0,12.6-2.8,21.2-7.4,26.6c-4.6,5.2-11.7,8.2-22.3,8.2C398.2,345.2,391,342.2,386.2,336.9z M189.1,370.2
	c12.1,6.9,26.1,10.4,42.1,10.4c16.1,0,30.1-3.5,42.1-10.4c12.1-7.1,21.5-16.9,28.1-29.4c6.7-12.6,10.1-27.3,10.1-44.2
	c0-16.7-3.4-31.3-10.1-43.7c-6.6-12.6-15.9-22.3-28.1-29.2c-12-6.9-26-10.3-42.1-10.3s-30.1,3.4-42.1,10.3
	c-12,6.9-21.3,16.6-28.1,29.2c-6.6,12.4-9.9,27.1-9.9,43.9s3.3,31.6,9.9,44.2C167.8,353.4,177.2,363.1,189.1,370.2z M275.8,219.3
	c-12.8-7.4-27.8-11-44.6-11c-16.8,0-31.8,3.6-44.6,11c-12.8,7.4-22.8,17.8-30,31.2l0,0l0,0c-7,13.3-10.5,28.8-10.5,46.3
	c0,17.5,3.4,33.1,10.5,46.5l0,0l0,0c7.2,13.2,17.2,23.6,29.9,31.1l0,0l0,0c13,7.4,27.9,11,44.6,11c16.8,0,31.8-3.6,44.6-11l0,0l0,0
	c12.9-7.5,22.9-18,30-31.4c7.2-13.4,10.7-29,10.7-46.5c0-17.4-3.5-32.8-10.7-46.1C298.7,237.1,288.7,226.7,275.8,219.3z
	 M262.7,336.1c-7.5,9.4-18,14-31.5,14c-13.3,0-23.8-4.7-31.5-14c-7.5-9.5-11.3-22.6-11.3-39.3c0-16.9,3.8-29.9,11.3-39.1
	c7.7-9.4,18.2-14,31.5-14c13.6,0,24.2,4.7,31.7,14c7.5,9.2,11.3,22.2,11.3,39.1C274.2,313.5,270.4,326.6,262.7,336.1z M203.6,260.9
	c-6.5,8-10.1,19.7-10.1,35.9c0,16,3.6,27.9,10.2,36.2c6.6,8,15.6,12.2,27.6,12.2c12.2,0,21.2-4.1,27.6-12.2l0,0
	c6.7-8.3,10.4-20.2,10.4-36.2c0-16.2-3.6-27.9-10.1-35.9l0,0l0,0c-6.4-8-15.5-12.2-27.8-12.2C219.2,248.7,210.2,252.8,203.6,260.9z
	 M59,378h35.7V245.3h53.6v-29.4H5.4v29.4H59V378z M54,250.3V383h45.7V250.3h53.6v-39.4H0.4v39.4H54z M602.7,175V2.9h33.9l73.5,93.8
	V2.9h43.1V175h-33.7l-73.8-94v94H602.7z M640.8,66.5L722,170h26.2V7.9h-33.1v103.3l-81-103.3h-26.4V170h33.1V66.5z M534.6,175V2.9
	h45.6V175H534.6z M539.6,170h35.6V7.9h-35.6V170z M363.9,175V42.3h-53.6V2.9h152.8v39.4h-53.6V175H363.9z M404.6,37.3h53.6V7.9
	H315.3v29.4h53.6V170h35.6V37.3z M181,175V2.9h121.1v37.8h-77v27.9h72v38.1h-72v30.5h77V175H181z M220.1,142.2v-40.5h72V73.6h-72
	V35.7h77V7.9H186V170h111.1v-27.8H220.1z M51.7,166.6L51.7,166.6c-13.4-7.4-23.7-17.7-30.8-31c-7-13.3-10.5-28.7-10.5-46
	c0-17.8,3.5-33.5,10.7-47l0,0l0,0c7.4-13.4,18-23.9,31.7-31.2C66.7,3.9,83,0.3,101.8,0.3c11.8,0,23.1,1.7,33.7,5.1
	c10.7,3.4,19.7,7.9,26.8,13.8l2.8,2.4l-15.3,37.1l-5.1-3.8c-6.6-4.9-13.3-8.3-20-10.3l0,0l0,0c-6.8-2.1-14.3-3.2-22.4-3.2
	c-15.5,0-26.3,4.3-33.3,12.1c-7,7.8-10.9,19.5-10.9,36c0,16.6,4,28.3,11.1,35.9c7.2,7.6,18.1,11.8,33.6,11.8c7.1,0,14.7-1,22.6-3
	v-22.9h-35V75.5h74.4v87.7l-2.8,1.4c-8.4,4.2-18.1,7.4-28.8,9.6c-10.8,2.2-21.5,3.3-32.3,3.3C81.7,177.5,65.4,174,51.7,166.6
	L51.7,166.6z M130,106.3V138c-9.7,2.8-18.9,4.1-27.6,4.1c-16.4,0-28.8-4.4-37.3-13.3c-8.3-8.9-12.4-22-12.4-39.3
	c0-17.2,4.1-30.3,12.2-39.3c8.3-9.2,20.6-13.8,37-13.8c8.6,0,16.6,1.2,23.9,3.5c5.9,1.7,11.7,4.4,17.4,8.1c1.4,0.9,2.8,1.9,4.2,2.9
	L159,23c-6.4-5.4-14.8-9.7-25.1-12.9c-10.1-3.2-20.9-4.8-32.2-4.8c-18.1,0-33.6,3.5-46.5,10.4c-12.9,6.9-22.8,16.6-29.7,29.2
	c-6.7,12.6-10.1,27.4-10.1,44.6c0,16.7,3.3,31.3,9.9,43.7s16.2,22.1,28.8,29c12.7,6.9,28.2,10.4,46.5,10.4c10.4,0,20.9-1.1,31.3-3.2
	s19.6-5.2,27.6-9.2V80.5H95.1v25.8H130z"/>
</svg>
