<?xml version="1.0" encoding="utf-8"?>
<!-- Generator: Adobe Illustrator 28.0.0, SVG Export Plug-In . SVG Version: 6.00 Build 0)  -->
<svg version="1.1" id="Layer_1" xmlns="http://www.w3.org/2000/svg" xmlns:xlink="http://www.w3.org/1999/xlink" x="0px" y="0px"
	 viewBox="0 0 1405 386" style="enable-background:new 0 0 1405 386;" xml:space="preserve">
<style type="text/css">
	.st0{fill-rule:evenodd;clip-rule:evenodd;fill:url(#SVGID_1_);}
</style>
<radialGradient id="SVGID_1_" cx="815.932" cy="384.8314" r="815.5953" gradientUnits="userSpaceOnUse">
	<stop  offset="0" style="stop-color:#EFDC01"/>
	<stop  offset="1" style="stop-color:#B68503"/>
</radialGradient>
<path class="st0" d="M1255,378h35.7v-62.8h17.5c4.6,0,8.6,0.8,12,2.5c3.4,1.5,6.2,4.4,8.5,8.5l28.1,51.8h39.3l-26.2-48.1
	c-3.7-6.5-8-11.4-13.1-14.6c-2.2-1.4-4.5-2.4-6.9-3.1c2.6-0.7,5.1-1.4,7.4-2.4c8-3.1,14.3-7.8,19.1-14c6.3-8.1,9.4-18.2,9.4-30.4
	c0-15.6-4.9-27.8-14.7-36.6c-9.8-8.7-23.8-13.1-41.9-13.1H1255V378z M1380.2,298.9c-4.7,6.1-10.7,10.8-18,14.2
	c4.7,3.6,8.6,8.4,11.9,14.4l0,0l0,0l30.2,55.5h-50.7l-29.5-54.3c0,0,0,0,0,0c-1.9-3.5-4-5.4-6.2-6.4l-0.1,0l-0.1,0
	c-2.5-1.3-5.7-2-9.7-2h-12.5V383H1250V210.9h79.1c18.9,0,34.2,4.6,45.2,14.4c11.1,9.9,16.4,23.5,16.4,40.3
	C1390.6,278.5,1387.2,289.8,1380.2,298.9z M1322.6,289.5h-32v-45.8h32c19.2,0,28.8,7.6,28.8,22.8
	C1351.4,281.8,1341.8,289.5,1322.6,289.5z M1295.7,248.7h27c9.1,0,14.9,1.8,18.5,4.6c3.3,2.6,5.3,6.7,5.3,13.2
	c0,6.6-2,10.7-5.3,13.3c-3.5,2.8-9.4,4.7-18.4,4.7h-27V248.7z M988.8,378h111.1v-27.8h-77v-40.5h72v-28.1h-72v-38h77v-27.8H988.8
	V378z M1027.8,248.7h77v-37.8H983.8V383h121.1v-37.8h-77v-30.5h72v-38.1h-72V248.7z M1121,378h111.1v-27.8h-77v-40.5h72v-28.1h-72
	v-38h77v-27.8H1121V378z M1160,248.7h77v-37.8H1116V383h121.1v-37.8h-77v-30.5h72v-38.1h-72V248.7z M882.1,378h35.6V245.3h53.6
	v-29.4H828.5v29.4h53.6V378z M877.1,250.3V383h45.6V250.3h53.6v-39.4H823.5v39.4H877.1z M670.3,378h33.1V274.5L784.6,378h26.2V215.9
	h-33.1v103.3l-81-103.3h-26.5V378z M772.7,304.6l-73.5-93.8h-33.9V383h43.1v-94l73.8,94h33.7V210.9h-43.1V304.6z M516.1,362.8
	c12.1,11.8,29.7,17.7,52.7,17.7s40.4-5.9,52.2-17.7c11.8-11.8,17.7-29.4,17.7-52.7v-94.3h-35.2v94.5c0,26.5-11.6,39.8-34.7,39.8
	c-11.3,0-20-3.3-26-9.9c-6-6.7-9-16.7-9-29.9v-94.5h-35.6v94.3C498.2,333.5,504.2,351,516.1,362.8z M546.5,336.9
	c-4.9-5.5-7.7-14.1-7.7-26.6v-99.5h-45.6v99.3c0,24.1,6.2,43.2,19.4,56.2l0,0l0,0c13.3,13,32.3,19.1,56.2,19.1
	c23.8,0,42.7-6.1,55.7-19.2c13.1-13.1,19.2-32.1,19.2-56.2v-99.3h-45.2v99.5c0,12.6-2.8,21.2-7.5,26.6c-4.6,5.2-11.7,8.2-22.3,8.2
	C558.5,345.2,551.3,342.2,546.5,336.9z M374.2,378h110.6v-30.1h-75v-132h-35.6V378z M414.9,342.9v-132h-45.6V383h120.6v-40.1H414.9z
	 M224.3,370.2c12.1,6.9,26.1,10.4,42.1,10.4c16.1,0,30.1-3.5,42.1-10.4c12.1-7.1,21.5-16.9,28.1-29.4c6.7-12.6,10.1-27.3,10.1-44.2
	c0-16.7-3.4-31.3-10.1-43.7c-6.6-12.6-15.9-22.3-28.1-29.2c-12-6.9-26-10.3-42.1-10.3s-30.1,3.4-42.1,10.3
	c-12,6.9-21.3,16.6-28.1,29.2c-6.6,12.4-9.9,27.1-9.9,43.9s3.3,31.6,9.9,44.2C203,353.4,212.3,363.1,224.3,370.2z M311,219.3
	c-12.8-7.4-27.8-11-44.6-11c-16.8,0-31.8,3.6-44.6,11c-12.8,7.4-22.8,17.8-30,31.2l0,0l0,0c-7,13.3-10.5,28.8-10.5,46.3
	c0,17.5,3.4,33.1,10.5,46.5l0,0l0,0c7.2,13.2,17.2,23.6,29.9,31.1l0,0l0,0c13,7.4,27.9,11,44.6,11c16.8,0,31.8-3.6,44.6-11l0,0l0,0
	c12.9-7.5,22.9-18,30-31.4c7.2-13.4,10.7-29,10.7-46.5c0-17.4-3.5-32.8-10.7-46.1C333.9,237.1,323.9,226.7,311,219.3z M297.9,336.1
	c-7.5,9.4-18,14-31.5,14c-13.3,0-23.8-4.7-31.5-14c-7.5-9.5-11.3-22.6-11.3-39.3c0-16.9,3.8-29.9,11.3-39.1c7.7-9.4,18.2-14,31.5-14
	c13.6,0,24.2,4.7,31.7,14c7.5,9.2,11.3,22.2,11.3,39.1C309.4,313.5,305.6,326.6,297.9,336.1z M238.7,260.9
	c-6.5,8-10.1,19.7-10.1,35.9c0,16,3.6,27.9,10.2,36.2c6.6,8,15.6,12.2,27.6,12.2c12.2,0,21.2-4.1,27.6-12.2l0,0
	c6.7-8.3,10.4-20.2,10.4-36.2c0-16.2-3.6-27.9-10.1-35.9l0,0l0,0c-6.4-8-15.5-12.2-27.8-12.2C254.4,248.7,245.4,252.8,238.7,260.9z
	 M81,378h29.2l72.9-162.1h-36.6L96.4,332.2L46.3,215.9H8.1L81,378z M96.4,319.6L49.6,210.9H0.4L77.8,383h35.7l77.4-172.1h-47.6
	L96.4,319.6z M858.4,175V2.9h121.1v37.8h-77v27.9h72v38.1h-72v30.5h77V175H858.4z M897.5,142.2v-40.5h72V73.6h-72V35.7h77V7.9H863.4
	V170h111.1v-27.8H897.5z M657.4,175V2.9H695L746.8,97l51.6-94.2h37.2V175h-42.4V90.2l-33.9,60.4h-25.9l-33.7-59.8V175H657.4z
	 M694.6,71.8l41.6,73.8h20l41.9-74.5V170h32.4V7.9h-29.2l-54.5,99.6L692.1,7.9h-29.7V170h32.2V71.8z M509.5,166.5L509.5,166.5
	c-12.8-7.5-22.8-17.9-29.9-31.1l0,0l0,0c-7-13.4-10.5-29-10.5-46.5c0-17.5,3.4-33,10.5-46.3l0,0l0,0c7.2-13.4,17.2-23.8,30-31.2
	c12.8-7.4,27.8-11,44.6-11c16.8,0,31.7,3.6,44.6,11c12.9,7.4,23,17.8,30,31.2c7.2,13.3,10.7,28.7,10.7,46.1
	c0,17.5-3.5,33.1-10.7,46.5c-7,13.4-17,23.9-30,31.4l0,0l0,0c-12.8,7.4-27.8,11-44.6,11C537.4,177.5,522.5,173.9,509.5,166.5
	L509.5,166.5z M624.3,132.7c6.7-12.6,10.1-27.3,10.1-44.2c0-16.7-3.4-31.3-10.1-43.7c-6.6-12.6-15.9-22.3-28.1-29.2
	c-12-6.9-26-10.4-42.1-10.4C538,5.3,524,8.8,512,15.7c-12,6.9-21.3,16.6-28.1,29.2c-6.6,12.4-9.9,27.1-9.9,43.9
	c0,16.9,3.3,31.6,9.9,44.2c6.7,12.4,16.1,22.2,28.1,29.2c12.1,6.9,26.1,10.4,42.1,10.4c16.1,0,30.1-3.4,42.1-10.4
	C608.3,155.1,617.7,145.3,624.3,132.7z M582,52.9L582,52.9c-6.4-8-15.5-12.2-27.9-12.2c-12,0-21,4.1-27.6,12.2
	c-6.5,8-10.1,19.7-10.1,35.9c0,16,3.6,27.9,10.2,36.2c6.6,8,15.6,12.2,27.6,12.2c12.2,0,21.2-4.1,27.6-12.2l0,0
	c6.7-8.3,10.4-20.2,10.4-36.2C592.1,72.6,588.5,60.9,582,52.9L582,52.9z M585.6,128.1c-7.5,9.4-18,14-31.5,14
	c-13.3,0-23.8-4.7-31.5-14c-7.5-9.5-11.3-22.6-11.3-39.3c0-16.9,3.8-29.9,11.3-39.1c7.7-9.4,18.2-14,31.5-14
	c13.6,0,24.2,4.7,31.7,14c7.5,9.2,11.3,22.2,11.3,39.1C597.1,105.5,593.3,118.6,585.6,128.1z M328.2,135.6L328.2,135.6
	c-7.1-13.5-10.5-29.1-10.5-46.7c0-17.5,3.4-33,10.5-46.3l0,0l0,0c7.2-13.4,17.5-23.8,30.7-31.2c13.3-7.4,29.1-11,47.3-11
	c11.3,0,22.1,1.8,32.4,5.3c10.3,3.6,19,8.5,25.9,14.9l2.5,2.3l-14.7,37.7l-5.3-4.1c-6.5-5.1-13-8.7-19.5-11l-0.1,0l-0.1,0
	c-6.3-2.4-13-3.6-20.1-3.6c-14.5,0-24.7,4.2-31.4,11.9c-6.7,7.7-10.5,19.1-10.5,35.1c0,16,3.7,27.5,10.5,35.4
	c6.8,7.7,16.9,11.9,31.4,11.9c7.1,0,13.8-1.1,20.1-3.4c6.5-2.4,13-6.1,19.6-11.2l5.3-4.1l14.7,37.8l-2.6,2.3
	c-6.9,6.2-15.5,11.1-25.8,14.8l0,0l0,0c-10.4,3.6-21.2,5.3-32.4,5.3c-18.1,0-34-3.6-47.3-11C345.6,159.2,335.4,148.8,328.2,135.6
	L328.2,135.6z M372.1,127.4c-7.8-9-11.7-21.9-11.7-38.6c0-16.7,3.9-29.5,11.7-38.4c8-9,19.7-13.6,35.2-13.6c7.7,0,14.9,1.3,21.9,3.9
	c5.6,2,11.2,4.8,16.8,8.7c1.4,1,2.8,2,4.2,3.1l11-28.3c-6.3-5.8-14.3-10.4-24.2-13.8c-9.8-3.4-20.1-5.1-30.8-5.1
	c-17.5,0-32.4,3.5-44.9,10.4c-12.4,6.9-22,16.6-28.8,29.2c-6.6,12.4-9.9,27.1-9.9,43.9c0,17,3.3,31.8,9.9,44.4
	c6.7,12.4,16.3,22.1,28.8,29c12.4,6.9,27.4,10.4,44.9,10.4c10.7,0,21-1.7,30.8-5.1c9.8-3.5,17.9-8.1,24.2-13.8l-11-28.3
	c-1.4,1.1-2.8,2.1-4.2,3.1c-5.5,3.8-11.1,6.8-16.8,8.9c-6.9,2.5-14.2,3.7-21.9,3.7C391.8,141,380.1,136.5,372.1,127.4z M183.3,175
	V2.9h121.1v37.8h-77.1v27.9h72v38.1h-72v30.5h77.1V175H183.3z M222.3,142.2v-40.5h72V73.6h-72V35.7h77.1V7.9H188.3V170h111.1v-27.8
	H222.3z M23.3,175V2.9h79.3c18,0,32.6,3.9,43.1,12.4c10.8,8.5,16.1,20.3,16.1,34.7c0,9.5-2.4,17.9-7.3,25.1l0,0l0,0
	c-2.8,4-6.3,7.4-10.3,10.3c5.3,2.9,9.8,6.7,13.4,11.4c5.8,7.6,8.6,16.8,8.6,27.4c0,15.7-5.6,28.5-17,37.7l0,0
	c-11.1,8.9-26,13.1-44.1,13.1H23.3z M153.7,99.9c-3.6-4.9-8.5-8.7-14.5-11.4c-2.1-0.9-4.3-1.7-6.7-2.4c2.3-0.9,4.4-2,6.4-3.1
	c4.7-2.8,8.5-6.4,11.6-10.7c4.3-6.3,6.4-13.7,6.4-22.3c0-13-4.8-23.3-14.3-30.8c-9.4-7.5-22.7-11.3-40-11.3H28.3V170h76.8
	c17.3,0,31-4,40.9-12c10.1-8.1,15.2-19.4,15.2-33.8C161.3,114.6,158.7,106.4,153.7,99.9z M67.4,69.6h29c8.2,0,13.5-1.6,16.6-4
	c2.9-2.2,4.6-5.6,4.6-11.2c0-5.5-1.7-8.8-4.6-11c-3.1-2.4-8.4-4-16.6-4h-29V69.6z M96.4,74.6c17.5,0,26.2-6.7,26.2-20.2
	c0-13.3-8.7-20-26.2-20h-34v40.3H96.4z M67.4,138.6h32.9c8.7,0,14.1-1.7,17.1-4.2c2.8-2.3,4.6-6,4.6-12.2c0-6-1.8-9.7-4.6-12
	c-3-2.4-8.3-4.2-17.1-4.2H67.4V138.6z M100.3,143.6c9.2,0,15.9-1.8,20.2-5.3c4.3-3.5,6.4-8.9,6.4-16.1c0-7.1-2.1-12.3-6.4-15.9
	s-11-5.3-20.2-5.3H62.4v42.6H100.3z"/>
</svg>
